<?xml version="1.0" encoding="UTF-8"?>
<svg xmlns="http://www.w3.org/2000/svg" xmlns:xlink="http://www.w3.org/1999/xlink" width="278px" height="150px" viewBox="0 0 277 150" version="1.1">
<defs>
<clipPath id="clip1">
  <path d="M 3 3 L 274 3 L 274 146 L 3 146 Z M 3 3 "/>
</clipPath>
<clipPath id="clip2">
  <path d="M 3.894531 74.921875 C 3.894531 114.140625 64.179688 145.9375 138.539062 145.9375 C 212.898438 145.9375 273.183594 114.140625 273.183594 74.921875 C 273.183594 35.703125 212.898438 3.90625 138.539062 3.90625 C 64.179688 3.90625 3.894531 35.703125 3.894531 74.921875 "/>
</clipPath>
<radialGradient id="radial0" gradientUnits="userSpaceOnUse" cx="0" cy="0" fx="0" fy="0" r="1" gradientTransform="matrix(176.805618,0,0,177.27436,84.736297,28.872983)">
<stop offset="0" style="stop-color:rgb(68.235294%,69.803922%,83.529412%);stop-opacity:1;"/>
<stop offset="0.3" style="stop-color:rgb(68.235294%,69.803922%,83.529412%);stop-opacity:1;"/>
<stop offset="0.75" style="stop-color:rgb(28.235294%,29.803922%,53.72549%);stop-opacity:1;"/>
<stop offset="1" style="stop-color:rgb(28.235294%,29.803922%,53.72549%);stop-opacity:1;"/>
</radialGradient>
</defs>
<g id="surface1">
<g clip-path="url(#clip1)" clip-rule="nonzero">
<g clip-path="url(#clip2)" clip-rule="nonzero">
<path style=" stroke:none;fill-rule:nonzero;fill:url(#radial0);" d="M 3.894531 74.921875 C 3.894531 114.140625 64.179688 145.9375 138.539062 145.9375 C 212.898438 145.9375 273.183594 114.140625 273.183594 74.921875 C 273.183594 35.703125 212.898438 3.90625 138.539062 3.90625 C 64.179688 3.90625 3.894531 35.703125 3.894531 74.921875 "/>
</g>
</g>
<path style=" stroke:none;fill-rule:nonzero;fill:rgb(46.666667%,48.235294%,70.196078%);fill-opacity:1;" d="M 138.539062 140.664062 C 209.996094 140.664062 267.921875 111.230469 267.921875 74.921875 C 267.921875 38.613281 209.996094 9.179688 138.539062 9.179688 C 67.082031 9.179688 9.15625 38.613281 9.15625 74.921875 C 9.15625 111.230469 67.082031 140.664062 138.539062 140.664062 "/>
<path style=" stroke:none;fill-rule:nonzero;fill:rgb(0%,0%,0%);fill-opacity:1;" d="M 77.050781 83.074219 C 82.925781 83.074219 87.3125 81.984375 90.085938 79.84375 C 92.832031 77.726562 94.726562 74.050781 95.722656 68.929688 C 96.648438 64.140625 96.296875 60.796875 94.671875 58.996094 C 93.015625 57.152344 89.425781 56.21875 84.011719 56.21875 L 74.621094 56.21875 L 69.417969 83.074219 Z M 46.335938 116.152344 C 45.902344 116.152344 45.488281 115.957031 45.210938 115.621094 C 44.933594 115.28125 44.820312 114.839844 44.902344 114.410156 L 58.699219 43.242188 C 58.832031 42.554688 59.433594 42.058594 60.132812 42.058594 L 89.867188 42.058594 C 99.210938 42.058594 106.164062 44.601562 110.539062 49.617188 C 114.933594 54.664062 116.289062 61.714844 114.570312 70.578125 C 113.871094 74.1875 112.667969 77.539062 110.996094 80.542969 C 109.320312 83.546875 107.109375 86.328125 104.417969 88.808594 C 101.195312 91.832031 97.546875 94.023438 93.589844 95.3125 C 89.691406 96.585938 84.683594 97.234375 78.710938 97.234375 L 66.671875 97.234375 L 63.234375 114.96875 C 63.101562 115.65625 62.5 116.152344 61.800781 116.152344 Z M 46.335938 116.152344 "/>
<path style=" stroke:none;fill-rule:nonzero;fill:rgb(100%,100%,100%);fill-opacity:1;" d="M 75.824219 57.679688 L 84.011719 57.679688 C 90.546875 57.679688 92.816406 59.121094 93.589844 59.976562 C 94.867188 61.398438 95.109375 64.398438 94.289062 68.652344 C 93.363281 73.414062 91.648438 76.789062 89.195312 78.683594 C 86.679688 80.625 82.59375 81.605469 77.050781 81.605469 L 71.1875 81.605469 Z M 89.867188 40.589844 L 60.132812 40.589844 C 58.734375 40.589844 57.53125 41.585938 57.265625 42.960938 L 43.46875 114.128906 C 43.304688 114.988281 43.527344 115.875 44.082031 116.550781 C 44.636719 117.226562 45.464844 117.617188 46.339844 117.617188 L 61.800781 117.617188 C 63.199219 117.617188 64.402344 116.625 64.667969 115.246094 L 67.875 98.695312 L 78.710938 98.695312 C 84.839844 98.695312 89.996094 98.027344 94.042969 96.707031 C 98.199219 95.351562 102.027344 93.054688 105.414062 89.878906 C 108.214844 87.292969 110.523438 84.394531 112.273438 81.257812 C 114.019531 78.117188 115.277344 74.617188 116.003906 70.855469 C 117.816406 61.527344 116.34375 54.058594 111.636719 48.65625 C 106.976562 43.304688 99.652344 40.589844 89.867188 40.589844 M 67.644531 84.535156 L 77.050781 84.535156 C 83.28125 84.535156 87.925781 83.359375 90.976562 81.003906 C 94.027344 78.648438 96.085938 74.71875 97.15625 69.210938 C 98.179688 63.921875 97.714844 60.1875 95.757812 58.011719 C 93.800781 55.839844 89.886719 54.75 84.011719 54.75 L 73.417969 54.75 L 67.644531 84.535156 M 89.867188 43.519531 C 98.8125 43.519531 105.335938 45.875 109.4375 50.582031 C 113.539062 55.289062 114.773438 61.859375 113.136719 70.296875 C 112.464844 73.773438 111.324219 76.949219 109.722656 79.828125 C 108.117188 82.707031 106.019531 85.339844 103.429688 87.730469 C 100.339844 90.625 96.910156 92.691406 93.136719 93.921875 C 89.363281 95.152344 84.554688 95.765625 78.710938 95.765625 L 65.46875 95.765625 L 61.800781 114.6875 L 46.339844 114.6875 L 60.132812 43.519531 L 89.867188 43.519531 "/>
<path style=" stroke:none;fill-rule:nonzero;fill:rgb(0%,0%,0%);fill-opacity:1;" d="M 150.023438 97.234375 C 149.585938 97.234375 149.175781 97.039062 148.898438 96.699219 C 148.617188 96.363281 148.507812 95.917969 148.589844 95.488281 L 154.691406 64 C 155.273438 61.003906 155.128906 58.855469 154.289062 57.949219 C 153.773438 57.390625 152.230469 56.460938 147.664062 56.460938 L 136.605469 56.460938 L 128.933594 96.046875 C 128.800781 96.734375 128.199219 97.234375 127.5 97.234375 L 112.160156 97.234375 C 111.722656 97.234375 111.308594 97.039062 111.03125 96.699219 C 110.753906 96.363281 110.644531 95.917969 110.726562 95.488281 L 124.519531 24.320312 C 124.65625 23.632812 125.257812 23.136719 125.957031 23.136719 L 141.296875 23.136719 C 141.730469 23.136719 142.144531 23.332031 142.421875 23.667969 C 142.699219 24.007812 142.8125 24.449219 142.730469 24.878906 L 139.402344 42.058594 L 151.292969 42.058594 C 160.355469 42.058594 166.5 43.660156 170.078125 46.953125 C 173.722656 50.316406 174.863281 55.6875 173.460938 62.929688 L 167.042969 96.046875 C 166.90625 96.734375 166.308594 97.234375 165.605469 97.234375 Z M 150.023438 97.234375 "/>
<path style=" stroke:none;fill-rule:nonzero;fill:rgb(100%,100%,100%);fill-opacity:1;" d="M 141.296875 21.671875 L 125.957031 21.671875 C 124.554688 21.671875 123.355469 22.664062 123.085938 24.042969 L 109.292969 95.207031 C 109.125 96.066406 109.351562 96.957031 109.90625 97.632812 C 110.460938 98.304688 111.289062 98.695312 112.160156 98.695312 L 127.5 98.695312 C 128.898438 98.695312 130.101562 97.703125 130.367188 96.328125 L 137.8125 57.925781 L 147.664062 57.925781 C 152.222656 57.925781 153.179688 58.902344 153.21875 58.945312 C 153.496094 59.242188 153.859375 60.625 153.257812 63.71875 L 147.15625 95.207031 C 146.988281 96.066406 147.214844 96.957031 147.769531 97.632812 C 148.324219 98.304688 149.152344 98.695312 150.023438 98.695312 L 165.605469 98.695312 C 167.007812 98.695312 168.207031 97.703125 168.476562 96.328125 L 174.894531 63.207031 C 176.398438 55.433594 175.113281 49.601562 171.066406 45.875 C 167.203125 42.320312 160.738281 40.589844 151.292969 40.589844 L 141.171875 40.589844 L 144.164062 25.160156 C 144.332031 24.300781 144.105469 23.410156 143.550781 22.738281 C 142.996094 22.0625 142.167969 21.671875 141.296875 21.671875 M 141.296875 24.601562 L 137.628906 43.519531 L 151.292969 43.519531 C 159.894531 43.519531 165.824219 45.027344 169.089844 48.03125 C 172.351562 51.039062 173.332031 55.914062 172.027344 62.648438 L 165.605469 95.765625 L 150.023438 95.765625 L 156.125 64.277344 C 156.820312 60.695312 156.566406 58.253906 155.359375 56.949219 C 154.152344 55.648438 151.585938 54.996094 147.664062 54.996094 L 135.402344 54.996094 L 127.5 95.765625 L 112.160156 95.765625 L 125.957031 24.601562 L 141.296875 24.601562 "/>
<path style=" stroke:none;fill-rule:nonzero;fill:rgb(0%,0%,0%);fill-opacity:1;" d="M 197.734375 83.074219 C 203.609375 83.074219 207.996094 81.984375 210.769531 79.84375 C 213.515625 77.726562 215.410156 74.054688 216.40625 68.929688 C 217.332031 64.140625 216.980469 60.796875 215.355469 58.996094 C 213.699219 57.152344 210.109375 56.21875 204.695312 56.21875 L 195.304688 56.21875 L 190.101562 83.074219 Z M 167.023438 116.152344 C 166.585938 116.152344 166.171875 115.957031 165.894531 115.621094 C 165.617188 115.28125 165.503906 114.839844 165.585938 114.410156 L 179.382812 43.242188 C 179.515625 42.554688 180.117188 42.058594 180.816406 42.058594 L 210.550781 42.058594 C 219.894531 42.058594 226.851562 44.601562 231.222656 49.617188 C 235.617188 54.664062 236.972656 61.714844 235.253906 70.578125 C 234.554688 74.1875 233.351562 77.539062 231.679688 80.542969 C 230.003906 83.546875 227.792969 86.328125 225.101562 88.808594 C 221.878906 91.832031 218.230469 94.023438 214.273438 95.3125 C 210.375 96.585938 205.367188 97.234375 199.394531 97.234375 L 187.355469 97.234375 L 183.917969 114.96875 C 183.785156 115.65625 183.183594 116.152344 182.484375 116.152344 Z M 167.023438 116.152344 "/>
<path style=" stroke:none;fill-rule:nonzero;fill:rgb(100%,100%,100%);fill-opacity:1;" d="M 196.511719 57.679688 L 204.695312 57.679688 C 211.230469 57.679688 213.5 59.121094 214.273438 59.976562 C 215.554688 61.398438 215.792969 64.398438 214.972656 68.652344 C 214.046875 73.414062 212.332031 76.789062 209.878906 78.683594 C 207.363281 80.625 203.277344 81.605469 197.734375 81.605469 L 191.871094 81.605469 Z M 210.550781 40.589844 L 180.816406 40.589844 C 179.417969 40.589844 178.214844 41.585938 177.949219 42.960938 L 164.152344 114.128906 C 163.988281 114.988281 164.210938 115.875 164.765625 116.550781 C 165.324219 117.226562 166.148438 117.617188 167.023438 117.617188 L 182.484375 117.617188 C 183.882812 117.617188 185.085938 116.625 185.351562 115.246094 L 188.558594 98.695312 L 199.394531 98.695312 C 205.523438 98.695312 210.679688 98.027344 214.726562 96.707031 C 218.882812 95.351562 222.710938 93.054688 226.097656 89.878906 C 228.902344 87.292969 231.207031 84.394531 232.957031 81.257812 C 234.703125 78.117188 235.960938 74.617188 236.6875 70.855469 C 238.5 61.527344 237.027344 54.058594 232.320312 48.65625 C 227.660156 43.304688 220.335938 40.589844 210.550781 40.589844 M 188.328125 84.535156 L 197.734375 84.535156 C 203.964844 84.535156 208.609375 83.359375 211.660156 81.003906 C 214.714844 78.648438 216.769531 74.71875 217.839844 69.210938 C 218.863281 63.921875 218.398438 60.1875 216.441406 58.011719 C 214.484375 55.839844 210.570312 54.75 204.695312 54.75 L 194.101562 54.75 L 188.328125 84.535156 M 210.550781 43.519531 C 219.496094 43.519531 226.019531 45.875 230.121094 50.582031 C 234.222656 55.289062 235.457031 61.859375 233.820312 70.296875 C 233.148438 73.773438 232.007812 76.949219 230.40625 79.828125 C 228.800781 82.707031 226.703125 85.339844 224.113281 87.730469 C 221.023438 90.625 217.59375 92.691406 213.820312 93.921875 C 210.046875 95.152344 205.238281 95.765625 199.394531 95.765625 L 186.152344 95.765625 L 182.484375 114.6875 L 167.023438 114.6875 L 180.816406 43.519531 L 210.550781 43.519531 "/>
</g>
</svg>
